<?xml version="1.0" encoding="UTF-8" standalone="no"?><!DOCTYPE svg PUBLIC "-//W3C//DTD SVG 1.1//EN" "http://www.w3.org/Graphics/SVG/1.1/DTD/svg11.dtd"><svg width="100%" height="100%" viewBox="0 0 289 288" version="1.1" xmlns="http://www.w3.org/2000/svg" xmlns:xlink="http://www.w3.org/1999/xlink" xml:space="preserve" style="fill-rule:evenodd;clip-rule:evenodd;stroke-linecap:round;stroke-linejoin:round;stroke-miterlimit:1.5;"><rect id="Reload" x="0.225" y="0" width="288" height="288" style="fill:none;"/><g><g><path d="M109.536,162.564l35.145,23.124l29.487,-44.815l6.444,-48.061l-41.588,24.936l-29.488,44.816Z" style="fill:#b6a50f;stroke:#000;stroke-width:10.5px;"/><clipPath id="_clip1"><path d="M127.109,174.126l17.572,11.562l53.503,-81.314l-17.572,-11.562l-53.503,81.314Z"/></clipPath><g clip-path="url(#_clip1)"><path d="M109.536,162.564l35.145,23.124l29.487,-44.815l6.444,-48.061l-41.588,24.936l-29.488,44.816Z" style="fill:#e5ce1d;stroke:#000;stroke-width:10.5px;"/></g><path d="M109.536,162.564l35.145,23.124l29.487,-44.815l6.444,-48.061l-41.588,24.936l-29.488,44.816Z" style="fill:none;stroke:#000;stroke-width:10.5px;"/></g><g><path d="M43.898,146.734l40.941,9.678l12.341,-52.208l-10.421,-47.358l-30.521,37.681l-12.34,52.207Z" style="fill:#b6a50f;stroke:#000;stroke-width:10.5px;"/><clipPath id="_clip2"><path d="M64.369,151.573l20.47,4.839l22.391,-94.727l-20.471,-4.839l-22.39,94.727Z"/></clipPath><g clip-path="url(#_clip2)"><path d="M43.898,146.734l40.941,9.678l12.341,-52.208l-10.421,-47.358l-30.521,37.681l-12.34,52.207Z" style="fill:#e5ce1d;stroke:#000;stroke-width:10.5px;"/></g><path d="M43.898,146.734l40.941,9.678l12.341,-52.208l-10.421,-47.358l-30.521,37.681l-12.34,52.207Z" style="fill:none;stroke:#000;stroke-width:10.5px;"/></g><g><path d="M160.298,197.712l23.675,34.775l44.345,-30.19l24.278,-41.976l-47.953,7.2l-44.345,30.191Z" style="fill:#b6a50f;stroke:#000;stroke-width:10.5px;"/><clipPath id="_clip3"><path d="M172.136,215.1l11.837,17.387l80.461,-54.778l-11.838,-17.388l-80.46,54.779Z"/></clipPath><g clip-path="url(#_clip3)"><path d="M160.298,197.712l23.675,34.775l44.345,-30.19l24.278,-41.976l-47.953,7.2l-44.345,30.191Z" style="fill:#e5ce1d;stroke:#000;stroke-width:10.5px;"/></g><path d="M160.298,197.712l23.675,34.775l44.345,-30.19l24.278,-41.976l-47.953,7.2l-44.345,30.191Z" style="fill:none;stroke:#000;stroke-width:10.5px;"/></g></g></svg>