<svg viewBox="0 0 864 864" xmlns="http://www.w3.org/2000/svg" xml:space="preserve" style="fill-rule:evenodd;clip-rule:evenodd;stroke-linecap:round;stroke-linejoin:round;stroke-miterlimit:1.5"><path style="fill:none" d="M0 0h864v864H0z"/><path d="M409.001 146.44s-71.39 145.155-71.39 207.365c0 43.157 31.989 78.195 71.39 78.195 39.401 0 71.39-35.038 71.39-78.195 0-62.21-71.39-207.365-71.39-207.365Z" style="fill:#ffc200;stroke:#000;stroke-width:15.92px" transform="matrix(2.0736 0 0 1.89313 -416.104 -115.532)"/><path d="M459.064 146.44S337.611 284.891 337.611 344.227c0 48.443 31.989 87.773 71.39 87.773 39.401 0 71.39-39.33 71.39-87.773 0-59.336-21.327-197.787-21.327-197.787Z" style="fill:#ff5b00;stroke:#000;stroke-width:16.72px" transform="matrix(2.0736 0 0 1.68656 -416.104 -26.291)"/><path d="M353.685 146.44s-16.074 131.564-16.074 187.948c0 53.874 31.989 97.612 71.39 97.612 39.401 0 71.39-43.738 71.39-97.612 0-56.384-126.706-187.948-126.706-187.948Z" style="fill:#ff2700;stroke:#000;stroke-width:16.06px" transform="matrix(2.0736 0 0 1.51656 -416.104 47.147)"/></svg>